<svg width="35" height="14" viewBox="0 0 35 14" fill="none" xmlns="http://www.w3.org/2000/svg">
<path d="M1.64205 12.3049C-0.547349 10.5688 -0.547349 7.75387 1.64205 6.01775L7.58884 1.30209C9.43976 -0.16558 12.2628 -0.392497 14.4143 0.62122C15.0799 0.934703 15.074 1.65395 14.5266 2.08807C13.9793 2.52207 13.0857 2.48474 12.3427 2.31242C11.3913 2.0918 10.3215 2.27894 9.57101 2.87394L3.62436 7.58949C3.36428 7.79497 3.15778 8.03971 3.01684 8.30952C2.87591 8.57934 2.80333 8.86885 2.80333 9.16128C2.80333 9.4537 2.87591 9.74322 3.01684 10.013C3.15778 10.2828 3.36428 10.5276 3.62436 10.7331C4.71898 11.6011 6.49407 11.6011 7.58869 10.7331L19.4821 1.3022C21.6717 -0.43403 25.2214 -0.43403 27.4111 1.3022L33.3579 6.01764C35.5473 7.75375 35.5473 10.5688 33.3579 12.3048C31.1683 14.041 27.6185 14.041 25.4289 12.3048L23.4466 10.7331L20.9689 12.6977C19.118 14.1654 16.2949 14.3924 14.1433 13.3787C13.4779 13.0652 13.4837 12.346 14.031 11.9119C14.5785 11.4779 15.4719 11.5152 16.2149 11.6875C17.1663 11.9083 18.2361 11.721 18.9866 11.126L21.5352 9.1051C22.591 8.26802 24.3024 8.26802 25.358 9.1051L27.4111 10.7331C28.5059 11.6011 30.2808 11.6011 31.3757 10.7331C31.6358 10.5276 31.8423 10.2828 31.9832 10.013C32.1241 9.74321 32.1967 9.4537 32.1967 9.16128C32.1967 8.86886 32.1241 8.57935 31.9832 8.30953C31.8423 8.03972 31.6358 7.79497 31.3757 7.58949L25.4288 2.87394C24.334 2.00594 22.5591 2.00594 21.4643 2.87394L9.57101 12.305C7.38146 14.0413 3.83159 14.041 1.64205 12.3049Z" fill="white"/>
</svg>
